<svg width="132" height="40" viewBox="0 0 132 40" xmlns="http://www.w3.org/2000/svg">
  <rect x="10" y="10" width="22" height="20" rx="6" fill="#6B8A99"/>
  <path d="M17 17C17 15.6 18.1 14.7 20 14.7C21.4 14.7 22.8 15.1 24.2 15.9V13.1C22.9 12.6 21.6 12.3 20 12.3C16.6 12.3 14.4 14.1 14.4 17C14.4 21.6 20.7 20.8 20.7 23.3C20.7 24.1 20 24.7 18.8 24.7C17.2 24.7 15.7 24 14.3 23.2V26.1C15.8 26.8 17.4 27.1 18.9 27.1C22.4 27.1 24.9 25.4 24.9 22.4C24.9 17.5 17 18.4 17 17Z" fill="#1F262A"/>
  <text x="44" y="24" fill="#E6ECEF" font-family="Arial, Helvetica, sans-serif" font-size="15" font-weight="700">Stripe</text>
</svg>
